<?xml version="1.0" standalone="no"?>
<!DOCTYPE svg PUBLIC "-//W3C//DTD SVG 20010904//EN"
 "http://www.w3.org/TR/2001/REC-SVG-20010904/DTD/svg10.dtd">
<svg version="1.0" xmlns="http://www.w3.org/2000/svg"
 width="1024.000000pt" height="1024.000000pt" viewBox="0 0 1024.000000 1024.000000"
 preserveAspectRatio="xMidYMid meet">

<g transform="translate(0.000000,1024.000000) scale(0.100000,-0.100000)"
fill="#000000" stroke="none">
<path d="M1925 8086 c-41 -18 -59 -40 -94 -116 -45 -97 -64 -183 -65 -290 -1
-114 14 -180 62 -280 51 -105 167 -222 275 -275 78 -38 89 -52 62 -75 -24 -20
-74 -4 -232 74 -203 100 -239 110 -398 110 -105 0 -145 -4 -209 -22 -145 -42
-305 -135 -334 -195 -40 -83 103 -349 254 -472 133 -108 271 -159 429 -159
114 0 202 25 335 95 45 23 78 35 83 30 9 -9 36 -214 37 -281 0 -33 -3 -37 -62
-65 -175 -85 -397 -274 -522 -445 -223 -303 -328 -651 -313 -1035 21 -526 287
-1001 722 -1291 305 -203 632 -294 1005 -281 252 9 447 58 662 166 l114 57 19
-26 c117 -154 627 -769 658 -791 151 -110 364 -55 455 116 24 44 27 61 27 145
0 156 3 151 -407 554 l-351 344 56 69 c223 276 347 634 347 1002 0 364 -112
697 -332 988 l-69 92 21 268 c24 303 36 397 54 412 9 8 31 1 78 -24 167 -89
310 -118 449 -93 171 32 317 116 424 245 74 90 154 249 162 324 5 56 5 56 -38
97 -55 53 -192 124 -295 153 -62 18 -105 23 -204 23 -164 0 -217 -14 -414
-115 -168 -86 -217 -99 -242 -64 -8 10 -14 22 -14 25 0 4 35 24 78 46 222 112
355 363 324 614 -19 150 -80 298 -139 337 -14 10 -44 18 -66 18 -54 0 -82 -34
-91 -112 -30 -259 -99 -346 -352 -437 l-67 -25 -41 35 c-50 44 -202 118 -274
134 -64 15 -558 20 -646 8 -86 -13 -197 -62 -279 -124 -39 -30 -75 -54 -79
-54 -27 0 -171 56 -219 86 -125 76 -183 173 -204 341 -14 115 -27 138 -80 148
-17 3 -43 -1 -60 -9z m1588 -646 c69 -13 127 -30 159 -47 95 -52 193 -188 244
-338 23 -68 28 -102 32 -221 l4 -141 -74 -5 c-162 -10 -260 -104 -303 -290
-73 -317 -15 -587 175 -803 144 -164 180 -244 188 -415 5 -122 -8 -204 -44
-278 -31 -63 -72 -92 -129 -92 -43 1 -146 38 -152 55 -2 6 13 19 33 30 157 84
210 340 112 535 -58 114 -173 175 -381 200 -129 16 -445 8 -547 -15 -159 -35
-255 -106 -302 -224 -32 -81 -32 -251 0 -332 26 -64 85 -137 139 -170 l37 -23
-60 -28 c-107 -51 -182 -31 -228 61 -36 70 -46 127 -47 249 0 188 40 285 180
437 147 160 198 292 208 535 4 115 2 148 -16 222 -43 180 -127 302 -230 332
-30 9 -79 16 -108 16 l-53 0 0 138 c0 220 45 344 173 479 70 74 148 130 165
119 5 -3 12 -24 15 -46 8 -64 62 -166 118 -225 72 -76 156 -117 254 -123 105
-7 113 -1 76 45 -17 21 -41 64 -55 95 -24 53 -66 201 -66 229 0 7 26 -15 58
-48 32 -33 81 -72 110 -87 88 -44 226 -69 261 -47 12 8 6 29 -37 120 -29 61
-52 113 -52 116 0 9 31 5 143 -15z m-1004 -987 c12 -10 24 -35 27 -55 12 -74
-77 -117 -131 -63 -70 69 28 179 104 118z m1396 -8 c52 -51 15 -135 -59 -135
-42 0 -76 37 -76 82 0 39 40 78 80 78 19 0 40 -9 55 -25z m-1715 -745 c38
-294 37 -265 16 -374 -31 -171 -15 -366 42 -486 49 -105 144 -182 256 -211 35
-9 51 -19 66 -45 27 -43 116 -124 175 -159 116 -67 282 -101 459 -92 199 10
350 70 463 184 34 35 64 71 68 82 4 13 22 22 63 30 163 32 281 175 313 382 14
88 6 271 -14 345 -9 30 -12 67 -8 90 l6 39 36 -65 c112 -203 169 -431 169
-672 0 -674 -469 -1240 -1137 -1375 -133 -27 -434 -24 -566 5 -376 83 -690
290 -889 586 -104 155 -174 320 -214 506 -27 121 -27 439 0 560 80 369 280
666 585 871 40 27 75 48 77 46 2 -1 17 -113 34 -247z m656 -376 c78 -37 115
-119 88 -197 -9 -26 -20 -49 -25 -52 -15 -10 -145 62 -173 95 -38 46 -36 92 8
136 38 38 53 41 102 18z m715 -13 c23 -24 29 -38 29 -74 0 -56 -31 -91 -121
-136 -71 -36 -83 -32 -100 32 -20 74 12 143 86 188 42 27 72 24 106 -10z
m-111 -616 c122 -23 119 -20 76 -64 -83 -85 -199 -123 -376 -124 -172 -1 -306
42 -385 123 l-38 39 39 10 c36 9 124 24 214 35 77 9 388 -3 470 -19z m884
-1520 c174 -168 325 -320 338 -338 17 -23 24 -49 26 -97 3 -55 0 -70 -20 -99
-35 -51 -71 -73 -127 -79 -66 -6 -126 17 -172 66 -53 55 -549 669 -549 679 0
9 171 172 182 173 4 0 149 -137 322 -305z"/>
<path d="M2037 5598 l-94 -93 86 80 c47 43 93 85 101 92 8 7 11 13 7 13 -3 0
-49 -42 -100 -92z"/>
<path d="M1902 5453 c-32 -43 -87 -133 -79 -133 3 0 17 21 33 48 15 26 40 64
56 85 16 20 27 37 25 37 -3 0 -19 -17 -35 -37z"/>
<path d="M1771 5221 c-29 -69 -26 -78 5 -12 13 30 23 56 20 58 -2 2 -13 -19
-25 -46z"/>
<path d="M1741 5143 c-1 -6 -4 -20 -7 -30 -5 -17 -5 -17 6 0 6 10 9 23 6 30
-3 9 -5 9 -5 0z"/>
<path d="M1721 5074 c0 -11 3 -14 6 -6 3 7 2 16 -1 19 -3 4 -6 -2 -5 -13z"/>
<path d="M1706 5014 c-4 -20 -5 -38 -3 -40 3 -3 8 11 11 32 4 20 5 38 3 40 -3
3 -8 -11 -11 -32z"/>
<path d="M1692 4920 c0 -19 2 -27 5 -17 2 9 2 25 0 35 -3 9 -5 1 -5 -18z"/>
<path d="M4092 4865 c0 -16 2 -22 5 -12 2 9 2 23 0 30 -3 6 -5 -1 -5 -18z"/>
<path d="M1684 4765 c0 -60 1 -84 3 -52 2 32 2 81 0 110 -2 29 -3 3 -3 -58z"/>
<path d="M4093 4640 c0 -25 2 -35 4 -22 2 12 2 32 0 45 -2 12 -4 2 -4 -23z"/>
<path d="M1692 4595 c0 -16 2 -22 5 -12 2 9 2 23 0 30 -3 6 -5 -1 -5 -18z"/>
<path d="M4082 4555 c0 -16 2 -22 5 -12 2 9 2 23 0 30 -3 6 -5 -1 -5 -18z"/>
<path d="M1702 4530 c0 -14 2 -19 5 -12 2 6 2 18 0 25 -3 6 -5 1 -5 -13z"/>
<path d="M4072 4500 c0 -14 2 -19 5 -12 2 6 2 18 0 25 -3 6 -5 1 -5 -13z"/>
<path d="M1711 4484 c0 -11 3 -14 6 -6 3 7 2 16 -1 19 -3 4 -6 -2 -5 -13z"/>
<path d="M4051 4429 c-7 -22 -11 -43 -8 -45 2 -2 9 14 16 37 7 22 11 43 8 45
-2 2 -9 -14 -16 -37z"/>
<path d="M1721 4444 c0 -11 3 -14 6 -6 3 7 2 16 -1 19 -3 4 -6 -2 -5 -13z"/>
<path d="M1731 4410 c0 -8 6 -28 14 -45 17 -39 18 -21 0 25 -7 19 -14 28 -14
20z"/>
<path d="M4016 4325 c-9 -26 -7 -32 5 -12 6 10 9 21 6 23 -2 3 -7 -2 -11 -11z"/>
<path d="M1771 4295 c0 -5 6 -21 14 -35 8 -14 14 -20 14 -15 0 6 -6 21 -14 35
-8 14 -14 21 -14 15z"/>
<path d="M3972 4225 c-17 -36 -30 -65 -27 -65 7 0 67 121 63 126 -2 2 -18 -26
-36 -61z"/>
<path d="M1850 4134 c12 -23 33 -55 46 -70 14 -16 6 0 -16 35 -48 76 -62 93
-30 35z"/>
<path d="M3876 4060 c-62 -90 -167 -196 -270 -272 -88 -66 -107 -82 -61 -53
134 83 317 266 376 377 20 38 1 15 -45 -52z"/>
<path d="M1947 3994 c49 -62 184 -187 249 -231 72 -48 84 -55 84 -50 0 3 -30
24 -67 48 -38 24 -120 95 -183 158 -63 63 -100 96 -83 75z"/>
<path d="M3430 3680 c-41 -21 -72 -39 -67 -40 10 0 147 69 147 75 0 7 3 8 -80
-35z"/>
<path d="M2290 3705 c0 -7 81 -47 86 -43 2 3 -17 14 -41 26 -25 12 -45 20 -45
17z"/>
<path d="M2420 3640 c8 -5 20 -10 25 -10 6 0 3 5 -5 10 -8 5 -19 10 -25 10 -5
0 -3 -5 5 -10z"/>
<path d="M3270 3615 c-36 -13 -60 -24 -54 -24 13 -1 134 39 134 45 0 7 -12 4
-80 -21z"/>
<path d="M2500 3610 c8 -5 22 -9 30 -9 10 0 8 3 -5 9 -27 12 -43 12 -25 0z"/>
<path d="M2558 3593 c7 -3 16 -2 19 1 4 3 -2 6 -13 5 -11 0 -14 -3 -6 -6z"/>
<path d="M3168 3583 c6 -2 18 -2 25 0 6 3 1 5 -13 5 -14 0 -19 -2 -12 -5z"/>
<path d="M2638 3573 c6 -2 18 -2 25 0 6 3 1 5 -13 5 -14 0 -19 -2 -12 -5z"/>
<path d="M3128 3573 c7 -3 16 -2 19 1 4 3 -2 6 -13 5 -11 0 -14 -3 -6 -6z"/>
<path d="M2693 3563 c9 -2 25 -2 35 0 9 3 1 5 -18 5 -19 0 -27 -2 -17 -5z"/>
<path d="M3063 3563 c9 -2 23 -2 30 0 6 3 -1 5 -18 5 -16 0 -22 -2 -12 -5z"/>
<path d="M2822 3553 c37 -2 100 -2 140 0 40 1 10 3 -67 3 -77 0 -110 -1 -73
-3z"/>
<path d="M5206 6014 c-8 -20 -8 -1018 0 -1038 5 -13 25 -16 115 -16 l109 0 0
230 c0 127 3 230 6 230 4 0 12 -6 18 -14 6 -8 87 -112 180 -230 l168 -216 128
0 c71 0 131 4 134 9 3 4 -86 125 -199 267 -115 146 -201 263 -196 269 4 5 91
123 194 261 103 138 187 254 187 257 0 4 -57 7 -128 7 l-127 0 -180 -252 -180
-253 -3 253 -2 252 -109 0 c-90 0 -110 -3 -115 -16z"/>
<path d="M6460 5741 c-42 -14 -84 -38 -104 -60 -22 -24 -36 -14 -36 26 0 20
-5 22 -91 25 -50 2 -93 1 -95 -1 -2 -2 -4 -177 -4 -388 l0 -384 103 3 102 3 5
255 c4 224 7 258 23 282 24 34 75 58 126 58 53 0 84 -15 107 -53 17 -29 20
-59 24 -287 l5 -255 100 0 100 0 3 260 c3 291 -4 342 -51 412 -48 69 -119 106
-216 109 -42 2 -87 0 -101 -5z"/>
<path d="M7183 5735 c-225 -70 -334 -335 -233 -569 29 -69 109 -148 183 -182
57 -27 71 -29 177 -29 104 0 121 3 172 27 159 74 250 254 219 433 -28 160
-121 272 -263 317 -70 21 -192 23 -255 3z m212 -194 c16 -9 43 -36 60 -59 24
-35 30 -55 33 -113 5 -86 -15 -145 -63 -188 -127 -111 -298 -14 -298 169 0
164 141 265 268 191z"/>
<path d="M7721 5726 c-5 -7 37 -150 113 -386 l122 -375 111 -3 c100 -2 112 -1
117 15 70 240 119 400 125 411 4 8 24 -42 50 -125 23 -76 54 -174 69 -218 l27
-80 107 -3 107 -3 111 343 c61 189 116 358 122 376 18 59 10 64 -98 60 -53 -2
-99 -5 -104 -8 -4 -3 -35 -111 -69 -240 -34 -129 -65 -243 -69 -253 -5 -12
-31 65 -81 237 -41 141 -77 256 -80 257 -57 8 -161 6 -169 -4 -6 -7 -41 -118
-78 -247 -36 -129 -70 -241 -73 -248 -4 -7 -31 74 -61 180 -77 279 -89 318
-103 318 -7 0 -51 2 -99 4 -57 2 -91 0 -97 -8z"/>
<path d="M5174 4725 c-4 -8 69 -145 170 -323 l176 -308 0 -186 c0 -147 3 -188
14 -197 9 -8 48 -11 112 -9 l99 3 5 195 c5 181 7 198 29 240 13 25 93 166 178
313 84 147 151 272 148 277 -3 6 -58 10 -121 10 l-114 0 -18 -29 c-9 -16 -60
-112 -112 -215 -52 -102 -98 -186 -102 -186 -3 0 -57 97 -118 215 l-111 215
-115 0 c-92 0 -116 -3 -120 -15z"/>
<path d="M6290 4475 c-110 -31 -191 -102 -244 -215 -29 -61 -31 -72 -31 -175
0 -92 4 -120 24 -170 29 -71 113 -160 182 -192 196 -92 439 -13 529 171 106
215 11 488 -198 566 -75 29 -189 35 -262 15z m187 -192 c107 -50 141 -223 68
-335 -82 -125 -263 -90 -314 61 -57 171 99 344 246 274z"/>
<path d="M8040 4459 c-25 -11 -59 -34 -77 -51 l-32 -31 -6 29 c-16 69 -9 65
-103 62 l-87 -3 0 -380 0 -380 100 0 100 0 5 240 c6 269 8 277 75 309 20 10
62 20 93 23 31 3 60 11 64 17 9 13 10 148 2 170 -9 23 -79 20 -134 -5z"/>
<path d="M6892 4458 c-7 -9 -10 -98 -8 -268 3 -295 11 -339 79 -416 55 -62
112 -86 207 -87 80 -1 144 20 187 62 l22 20 11 -35 12 -35 91 3 92 3 0 380 0
380 -100 0 -100 0 -5 -250 c-5 -242 -6 -251 -28 -283 -30 -41 -70 -62 -122
-62 -53 0 -95 22 -117 63 -15 27 -19 68 -23 282 l-5 250 -91 3 c-65 2 -94 -1
-102 -10z"/>
<path d="M5586 3478 c-185 -35 -350 -205 -386 -397 -25 -133 -2 -294 58 -406
38 -69 136 -166 202 -198 125 -61 300 -72 441 -28 101 32 247 141 232 175 -2
6 -36 37 -74 69 l-69 58 -49 -41 c-65 -55 -134 -80 -219 -80 -133 0 -225 57
-277 172 -25 53 -29 76 -30 148 0 142 48 236 153 298 42 24 56 27 142 27 84 0
101 -3 148 -28 29 -15 70 -44 92 -63 l40 -36 47 40 c27 22 62 54 78 72 l30 32
-52 48 c-133 123 -320 174 -507 138z"/>
<path d="M6479 3202 c-189 -50 -301 -212 -287 -416 7 -98 39 -174 100 -242
110 -119 280 -155 443 -94 82 32 173 122 205 205 31 78 34 224 7 301 -66 190
-272 298 -468 246z m158 -183 c73 -27 123 -109 123 -204 0 -176 -161 -274
-284 -173 -50 41 -76 98 -76 171 0 149 117 252 237 206z"/>
<path d="M6976 3192 c-2 -4 38 -138 90 -298 52 -159 106 -326 120 -371 l25
-83 105 0 c99 0 105 1 114 23 5 12 35 109 66 215 31 105 60 192 64 192 3 0 36
-96 72 -212 l65 -213 105 -3 106 -3 20 63 c174 536 212 658 212 677 0 20 -4
21 -100 21 -84 0 -101 -3 -108 -17 -5 -10 -35 -119 -67 -243 -31 -124 -61
-229 -65 -233 -4 -4 -30 72 -59 170 -29 98 -62 210 -74 248 l-22 70 -85 0 -85
0 -71 -248 c-40 -137 -74 -250 -76 -252 -2 -2 -35 110 -73 248 l-70 252 -102
3 c-56 1 -104 -1 -107 -6z"/>
</g>
</svg>
