<?xml version="1.0" standalone="no"?>
<!DOCTYPE svg PUBLIC "-//W3C//DTD SVG 20010904//EN"
 "http://www.w3.org/TR/2001/REC-SVG-20010904/DTD/svg10.dtd">
<svg version="1.0" xmlns="http://www.w3.org/2000/svg"
 width="1024.000000pt" height="1024.000000pt" viewBox="0 0 1024.000000 1024.000000"
 preserveAspectRatio="xMidYMid meet">

<g transform="translate(0.000000,1024.000000) scale(0.100000,-0.100000)"
fill="#000000" stroke="none">
<path d="M2890 10107 c-51 -16 -149 -119 -192 -203 -44 -83 -88 -211 -119
-344 -34 -142 -32 -338 4 -475 49 -188 108 -311 215 -453 125 -166 267 -278
456 -358 55 -24 102 -48 104 -54 2 -5 -12 -26 -31 -45 -34 -34 -38 -35 -109
-35 l-74 0 -234 118 c-224 113 -405 187 -535 218 -108 25 -289 36 -405 24
-300 -31 -598 -153 -761 -310 -81 -78 -92 -109 -79 -214 12 -93 38 -165 104
-293 141 -270 354 -478 631 -616 175 -88 324 -120 545 -119 245 1 469 67 682
201 34 22 66 37 70 33 11 -12 36 -153 43 -247 3 -49 13 -146 21 -215 7 -69 14
-128 14 -132 0 -4 -41 -28 -91 -54 -619 -310 -1151 -915 -1367 -1554 -136
-400 -192 -743 -178 -1091 18 -479 102 -822 297 -1210 191 -382 424 -688 717
-941 574 -496 1277 -759 2023 -758 518 0 1084 138 1462 356 44 25 83 42 87 37
4 -4 128 -156 276 -338 147 -181 331 -406 409 -500 77 -93 183 -222 235 -285
118 -145 155 -185 204 -221 l39 -29 307 0 307 0 39 28 c102 75 186 200 219
327 18 69 20 212 4 287 -25 122 -59 170 -248 359 -151 150 -580 567 -954 927
l-107 104 38 43 c99 113 276 388 381 595 171 333 279 728 311 1135 27 353 -53
879 -187 1220 -65 165 -218 470 -293 585 -66 100 -101 146 -187 246 -64 74
-63 65 -28 385 13 123 29 283 35 354 32 376 42 468 59 529 10 37 21 69 23 72
3 2 47 -22 99 -54 237 -148 515 -215 794 -191 201 17 342 62 513 164 287 169
496 405 622 700 47 108 65 189 56 239 -9 47 -107 153 -201 216 -345 233 -836
300 -1220 167 -165 -57 -301 -120 -550 -251 -88 -47 -91 -48 -167 -44 -69 3
-80 6 -107 32 -17 17 -31 35 -31 42 0 6 21 19 48 29 202 76 361 190 491 352
157 195 233 379 261 633 32 294 -94 679 -276 838 -98 87 -230 63 -263 -49 -7
-22 -18 -99 -26 -172 -20 -183 -40 -265 -87 -360 -49 -98 -137 -191 -247 -262
-84 -54 -272 -146 -346 -168 -100 -31 -97 -31 -166 24 -227 183 -414 262 -677
290 -69 7 -263 9 -547 6 -397 -3 -449 -6 -530 -24 -190 -43 -339 -114 -521
-248 l-100 -73 -47 9 c-59 11 -236 86 -325 138 -279 163 -371 318 -402 676
-12 149 -33 206 -89 242 -37 25 -83 28 -141 10z m2980 -1238 c41 -10 117 -39
168 -64 77 -39 107 -61 180 -134 106 -108 188 -220 247 -339 97 -192 120 -303
119 -572 0 -107 -4 -212 -8 -232 l-7 -38 -87 0 c-162 0 -264 -42 -378 -155
-170 -168 -247 -394 -261 -761 -7 -204 5 -316 53 -491 71 -261 136 -375 351
-622 153 -175 248 -340 295 -513 20 -73 22 -106 22 -273 0 -179 -2 -195 -28
-280 -42 -137 -88 -227 -143 -274 -59 -52 -134 -76 -211 -67 -57 7 -242 64
-242 75 0 3 25 21 54 38 248 150 369 456 311 788 -39 220 -158 405 -309 482
-77 39 -147 60 -285 87 -391 76 -845 78 -1200 5 -294 -60 -413 -133 -504 -307
-73 -139 -97 -243 -98 -419 0 -225 56 -383 186 -521 41 -43 100 -93 135 -114
l63 -37 -44 -19 c-58 -25 -204 -62 -244 -62 -55 0 -135 30 -174 66 -74 66
-158 267 -182 433 -22 156 2 348 62 494 61 147 142 268 312 465 165 190 222
285 283 465 98 291 115 574 53 897 -75 387 -334 645 -630 628 l-68 -4 -8 76
c-13 124 -8 416 10 501 58 284 283 602 507 719 45 23 83 40 84 38 2 -1 17 -46
35 -98 47 -145 111 -249 216 -356 166 -168 348 -262 547 -281 112 -10 124 19
52 124 -63 92 -109 187 -149 306 -35 106 -65 237 -65 284 l0 27 17 -24 c128
-188 396 -332 659 -356 171 -16 184 8 90 163 -36 59 -82 144 -101 188 l-35 80
58 6 c82 9 205 -1 292 -22z m-1933 -1797 c44 -31 66 -84 61 -147 -5 -63 -29
-98 -86 -126 -33 -16 -53 -20 -85 -15 -145 24 -188 219 -65 297 44 27 131 23
175 -9z m2517 5 c69 -39 96 -131 62 -211 -32 -76 -147 -111 -215 -64 -58 39
-76 72 -76 138 0 44 5 66 21 87 54 73 134 92 208 50z m-3184 -990 c0 -17 9
-111 20 -207 20 -175 47 -321 100 -546 l29 -122 -20 -68 c-46 -163 -63 -290
-63 -489 0 -159 3 -205 21 -281 49 -208 118 -340 248 -469 103 -103 189 -154
310 -185 l78 -20 156 -158 c124 -125 172 -166 232 -200 106 -59 231 -109 368
-145 113 -30 121 -31 341 -31 197 0 238 3 330 23 205 44 377 114 508 208 59
42 122 103 258 251 43 46 57 55 113 68 235 54 423 240 520 514 38 108 47 159
62 364 14 186 4 336 -31 485 -19 77 -19 86 -4 149 9 37 18 74 21 82 3 8 41
-57 87 -150 212 -426 298 -805 283 -1249 -11 -347 -79 -637 -224 -959 -213
-471 -527 -833 -992 -1143 -297 -198 -636 -328 -1006 -386 -140 -22 -573 -25
-710 -4 -252 37 -474 99 -708 197 -227 96 -413 208 -628 382 -441 354 -739
805 -869 1316 -59 233 -74 353 -74 626 -1 193 3 262 22 386 43 290 121 553
227 770 150 305 425 629 719 848 108 80 253 176 269 176 4 0 7 -15 7 -33z
m2571 -1074 c43 -36 59 -79 59 -155 0 -79 -22 -129 -83 -190 -50 -49 -104 -80
-179 -99 -43 -12 -49 -11 -69 7 -131 118 -33 378 171 450 51 19 65 17 101 -13z
m-1320 -9 c159 -80 238 -254 172 -380 -31 -58 -45 -67 -95 -60 -100 15 -198
83 -249 170 -24 43 -29 62 -29 119 0 77 14 112 60 151 40 33 77 33 141 0z
m902 -1103 c116 -24 317 -79 381 -106 38 -16 38 -16 20 -37 -82 -92 -300 -199
-484 -238 -99 -21 -324 -24 -430 -6 -183 32 -353 108 -466 210 -51 45 -55 51
-39 62 42 31 300 104 435 123 41 6 86 13 100 15 14 3 104 3 200 1 130 -2 203
-8 283 -24z m1365 -2314 c64 -63 185 -176 267 -252 207 -191 595 -557 737
-695 114 -111 118 -117 118 -156 0 -67 -36 -167 -83 -231 -85 -115 -148 -148
-274 -141 -95 4 -169 36 -239 100 -36 33 -692 791 -977 1129 l-47 56 103 76
c56 41 140 109 187 151 46 42 85 76 87 76 2 0 57 -51 121 -113z"/>
<path d="M3246 5645 c-75 -52 -80 -63 -6 -15 77 51 76 50 64 49 -5 0 -31 -15
-58 -34z"/>
<path d="M3149 5573 c-13 -16 -12 -17 4 -4 16 13 21 21 13 21 -2 0 -10 -8 -17
-17z"/>
<path d="M2996 5438 c-67 -68 -137 -143 -155 -168 -32 -44 -32 -44 10 5 23 28
96 103 161 168 66 64 116 117 113 117 -3 0 -61 -55 -129 -122z"/>
<path d="M2789 5203 c-13 -16 -12 -17 4 -4 9 7 17 15 17 17 0 8 -8 3 -21 -13z"/>
<path d="M2742 5138 c-36 -54 -44 -68 -39 -68 2 0 21 25 41 55 20 30 34 55 32
55 -3 0 -18 -19 -34 -42z"/>
<path d="M2670 5020 c-11 -22 -18 -40 -15 -40 2 0 14 18 25 40 11 22 18 40 15
40 -2 0 -14 -18 -25 -40z"/>
<path d="M2612 4905 c-17 -37 -14 -45 4 -12 9 16 14 31 11 33 -2 2 -9 -7 -15
-21z"/>
<path d="M2586 4845 c-9 -26 -7 -32 5 -12 6 10 9 21 6 23 -2 3 -7 -2 -11 -11z"/>
<path d="M2566 4795 c-9 -26 -7 -32 5 -12 6 10 9 21 6 23 -2 3 -7 -2 -11 -11z"/>
<path d="M2536 4715 c-3 -9 -6 -22 -5 -28 0 -7 5 -1 10 12 5 13 8 26 5 28 -2
2 -6 -3 -10 -12z"/>
<path d="M2506 4614 c-4 -14 -5 -28 -3 -31 3 -2 8 8 11 23 4 14 5 28 3 31 -3
2 -8 -8 -11 -23z"/>
<path d="M2491 4554 c0 -11 3 -14 6 -6 3 7 2 16 -1 19 -3 4 -6 -2 -5 -13z"/>
<path d="M2481 4514 c0 -11 3 -14 6 -6 3 7 2 16 -1 19 -3 4 -6 -2 -5 -13z"/>
<path d="M2472 4470 c0 -14 2 -19 5 -12 2 6 2 18 0 25 -3 6 -5 1 -5 -13z"/>
<path d="M2462 4420 c0 -14 2 -19 5 -12 2 6 2 18 0 25 -3 6 -5 1 -5 -13z"/>
<path d="M2451 4374 c0 -11 3 -14 6 -6 3 7 2 16 -1 19 -3 4 -6 -2 -5 -13z"/>
<path d="M2442 4315 c0 -16 2 -22 5 -12 2 9 2 23 0 30 -3 6 -5 -1 -5 -18z"/>
<path d="M2432 4250 c0 -19 2 -27 5 -17 2 9 2 25 0 35 -3 9 -5 1 -5 -18z"/>
<path d="M6842 4240 c0 -14 2 -19 5 -12 2 6 2 18 0 25 -3 6 -5 1 -5 -13z"/>
<path d="M6853 4165 c0 -27 2 -38 4 -22 2 15 2 37 0 50 -2 12 -4 0 -4 -28z"/>
<path d="M2423 4165 c0 -22 2 -30 4 -17 2 12 2 30 0 40 -3 9 -5 -1 -4 -23z"/>
<path d="M2414 3930 c0 -96 2 -136 3 -87 2 48 2 126 0 175 -1 48 -3 8 -3 -88z"/>
<path d="M6864 3980 c0 -69 1 -97 3 -62 2 34 2 90 0 125 -2 34 -3 6 -3 -63z"/>
<path d="M6853 3795 c0 -22 2 -30 4 -17 2 12 2 30 0 40 -3 9 -5 -1 -4 -23z"/>
<path d="M6842 3720 c0 -14 2 -19 5 -12 2 6 2 18 0 25 -3 6 -5 1 -5 -13z"/>
<path d="M2423 3685 c0 -22 2 -30 4 -17 2 12 2 30 0 40 -3 9 -5 -1 -4 -23z"/>
<path d="M6832 3655 c0 -16 2 -22 5 -12 2 9 2 23 0 30 -3 6 -5 -1 -5 -18z"/>
<path d="M2432 3605 c0 -16 2 -22 5 -12 2 9 2 23 0 30 -3 6 -5 -1 -5 -18z"/>
<path d="M6822 3600 c0 -14 2 -19 5 -12 2 6 2 18 0 25 -3 6 -5 1 -5 -13z"/>
<path d="M2442 3545 c0 -16 2 -22 5 -12 2 9 2 23 0 30 -3 6 -5 -1 -5 -18z"/>
<path d="M6812 3550 c0 -14 2 -19 5 -12 2 6 2 18 0 25 -3 6 -5 1 -5 -13z"/>
<path d="M6801 3504 c0 -11 3 -14 6 -6 3 7 2 16 -1 19 -3 4 -6 -2 -5 -13z"/>
<path d="M2451 3494 c0 -11 3 -14 6 -6 3 7 2 16 -1 19 -3 4 -6 -2 -5 -13z"/>
<path d="M6791 3464 c0 -11 3 -14 6 -6 3 7 2 16 -1 19 -3 4 -6 -2 -5 -13z"/>
<path d="M2461 3454 c0 -11 3 -14 6 -6 3 7 2 16 -1 19 -3 4 -6 -2 -5 -13z"/>
<path d="M6781 3424 c0 -11 3 -14 6 -6 3 7 2 16 -1 19 -3 4 -6 -2 -5 -13z"/>
<path d="M2471 3414 c0 -11 3 -14 6 -6 3 7 2 16 -1 19 -3 4 -6 -2 -5 -13z"/>
<path d="M6766 3374 c-4 -14 -5 -28 -3 -31 3 -2 8 8 11 23 4 14 5 28 3 31 -3
2 -8 -8 -11 -23z"/>
<path d="M6721 3239 c-6 -18 -9 -34 -7 -36 2 -2 9 10 15 28 6 18 9 34 7 36 -2
2 -9 -10 -15 -28z"/>
<path d="M2536 3220 c3 -14 11 -32 16 -40 6 -10 7 -7 2 10 -3 14 -11 32 -16
40 -6 10 -7 7 -2 -10z"/>
<path d="M6672 3118 c-18 -39 -30 -73 -28 -75 2 -2 17 29 35 68 18 39 30 73
28 75 -2 2 -18 -29 -35 -68z"/>
<path d="M2560 3155 c0 -5 5 -17 10 -25 5 -8 10 -10 10 -5 0 6 -5 17 -10 25
-5 8 -10 11 -10 5z"/>
<path d="M2581 3105 c0 -5 6 -21 14 -35 8 -14 14 -20 14 -15 0 6 -6 21 -14 35
-8 14 -14 21 -14 15z"/>
<path d="M6595 2960 c-14 -27 -23 -50 -20 -50 2 0 16 23 30 50 14 28 23 50 20
50 -2 0 -16 -22 -30 -50z"/>
<path d="M2685 2890 c9 -16 18 -30 21 -30 2 0 -2 14 -11 30 -9 17 -18 30 -21
30 -2 0 2 -13 11 -30z"/>
<path d="M6550 2880 c-6 -11 -8 -20 -6 -20 3 0 10 9 16 20 6 11 8 20 6 20 -3
0 -10 -9 -16 -20z"/>
<path d="M2716 2838 c21 -36 85 -128 89 -128 3 0 -16 32 -41 70 -26 39 -49 70
-51 70 -2 0 -1 -6 3 -12z"/>
<path d="M6486 2780 c-25 -38 -44 -70 -41 -70 2 0 22 26 43 58 47 70 54 82 49
82 -2 0 -25 -31 -51 -70z"/>
<path d="M2810 2696 c0 -2 8 -10 18 -17 15 -13 16 -12 3 4 -13 16 -21 21 -21
13z"/>
<path d="M6400 2660 c-17 -22 -29 -40 -27 -40 3 0 20 18 37 40 17 22 29 40 27
40 -3 0 -20 -18 -37 -40z"/>
<path d="M2872 2620 c57 -77 219 -243 308 -316 19 -16 -31 36 -111 116 -80 80
-165 168 -188 195 -40 46 -41 47 -9 5z"/>
<path d="M6256 2492 c-60 -64 -81 -90 -47 -57 59 56 167 175 159 175 -1 0 -52
-53 -112 -118z"/>
<path d="M6100 2347 c-20 -17 -56 -49 -80 -70 -34 -29 -29 -27 16 8 55 41 114
95 103 95 -2 0 -20 -15 -39 -33z"/>
<path d="M3224 2272 c8 -13 66 -56 66 -49 0 3 -17 17 -37 33 -20 15 -33 23
-29 16z"/>
<path d="M5887 2186 c-73 -50 -110 -80 -77 -61 34 19 160 106 160 110 0 7 1 8
-83 -49z"/>
<path d="M3300 2216 c0 -3 20 -19 45 -36 25 -17 45 -29 45 -26 0 3 -20 19 -45
36 -25 17 -45 29 -45 26z"/>
<path d="M3400 2146 c0 -3 9 -10 20 -16 11 -6 20 -8 20 -6 0 3 -9 10 -20 16
-11 6 -20 8 -20 6z"/>
<path d="M3450 2116 c0 -3 9 -10 20 -16 11 -6 20 -8 20 -6 0 3 -9 10 -20 16
-11 6 -20 8 -20 6z"/>
<path d="M5764 2104 c-18 -14 -18 -15 4 -4 12 6 22 13 22 15 0 8 -5 6 -26 -11z"/>
<path d="M3500 2085 c0 -2 23 -16 50 -30 28 -14 50 -23 50 -20 0 2 -22 16 -50
30 -27 14 -50 23 -50 20z"/>
<path d="M5708 2074 c-38 -20 -36 -28 2 -9 17 9 30 18 30 20 0 7 -1 6 -32 -11z"/>
<path d="M5540 1985 c-69 -35 -122 -64 -117 -64 10 -1 247 118 247 124 0 7 8
11 -130 -60z"/>
<path d="M3735 1965 c39 -19 75 -34 80 -34 6 0 -23 16 -64 35 -40 19 -76 34
-80 33 -3 0 26 -16 64 -34z"/>
<path d="M3840 1920 c8 -5 20 -10 25 -10 6 0 3 5 -5 10 -8 5 -19 10 -25 10 -5
0 -3 -5 5 -10z"/>
<path d="M5380 1910 c-8 -5 -10 -10 -5 -10 6 0 17 5 25 10 8 5 11 10 5 10 -5
0 -17 -5 -25 -10z"/>
<path d="M5310 1885 c-19 -7 -28 -14 -20 -14 8 0 29 6 45 14 39 17 21 18 -25
0z"/>
<path d="M3955 1880 c11 -5 27 -9 35 -9 9 0 8 4 -5 9 -11 5 -27 9 -35 9 -9 0
-8 -4 5 -9z"/>
<path d="M4055 1851 c11 -4 36 -11 55 -15 24 -4 29 -3 15 3 -11 4 -36 11 -55
15 -24 4 -29 3 -15 -3z"/>
<path d="M5218 1853 c7 -3 16 -2 19 1 4 3 -2 6 -13 5 -11 0 -14 -3 -6 -6z"/>
<path d="M5178 1843 c7 -3 16 -2 19 1 4 3 -2 6 -13 5 -11 0 -14 -3 -6 -6z"/>
<path d="M5138 1833 c7 -3 16 -2 19 1 4 3 -2 6 -13 5 -11 0 -14 -3 -6 -6z"/>
<path d="M4168 1823 c7 -3 16 -2 19 1 4 3 -2 6 -13 5 -11 0 -14 -3 -6 -6z"/>
<path d="M5083 1823 c9 -2 23 -2 30 0 6 3 -1 5 -18 5 -16 0 -22 -2 -12 -5z"/>
<path d="M4208 1813 c6 -2 18 -2 25 0 6 3 1 5 -13 5 -14 0 -19 -2 -12 -5z"/>
<path d="M5028 1813 c6 -2 18 -2 25 0 6 3 1 5 -13 5 -14 0 -19 -2 -12 -5z"/>
<path d="M4268 1803 c6 -2 18 -2 25 0 6 3 1 5 -13 5 -14 0 -19 -2 -12 -5z"/>
<path d="M4968 1803 c6 -2 18 -2 25 0 6 3 1 5 -13 5 -14 0 -19 -2 -12 -5z"/>
<path d="M4333 1793 c9 -2 25 -2 35 0 9 3 1 5 -18 5 -19 0 -27 -2 -17 -5z"/>
<path d="M4903 1793 c9 -2 23 -2 30 0 6 3 -1 5 -18 5 -16 0 -22 -2 -12 -5z"/>
<path d="M4408 1783 c12 -2 32 -2 45 0 12 2 2 4 -23 4 -25 0 -35 -2 -22 -4z"/>
<path d="M4813 1783 c9 -2 25 -2 35 0 9 3 1 5 -18 5 -19 0 -27 -2 -17 -5z"/>
<path d="M4563 1773 c43 -2 110 -2 150 0 40 1 5 3 -78 3 -82 0 -115 -2 -72 -3z"/>
</g>
</svg>
